<?xml version="1.0" encoding="UTF-8"?>
<!DOCTYPE svg PUBLIC "-//W3C//DTD SVG 1.1//EN" "http://www.w3.org/Graphics/SVG/1.1/DTD/svg11.dtd">
<!-- Creator: CorelDRAW 2021 (64-Bit) -->
<svg xmlns="http://www.w3.org/2000/svg" xml:space="preserve" width="215.9mm" height="279.4mm" version="1.1" style="shape-rendering:geometricPrecision; text-rendering:geometricPrecision; image-rendering:optimizeQuality; fill-rule:evenodd; clip-rule:evenodd"
viewBox="0 0 21590 27940"
 xmlns:xlink="http://www.w3.org/1999/xlink"
 xmlns:xodm="http://www.corel.com/coreldraw/odm/2003">
 <defs>
  <style type="text/css">
   <![CDATA[
    .fil1 {fill:#FE96D1}
    .fil2 {fill:#FE96D1}
    .fil0 {fill:#FEFEFE}
   ]]>
  </style>
 </defs>
 <g id="Слой_x0020_1">
  <metadata id="CorelCorpID_0Corel-Layer"/>
  <path class="fil0" d="M9334.94 4626.92c37.06,500.15 293.01,562.73 553.29,848.83 83.81,92.08 48.18,297.6 39.82,428.47 -17.91,280.64 -284.9,354.53 -509.13,424.33 -266.59,83 -496.14,115.46 -772.06,184.14 -273.76,68.14 -438.12,199.99 -564.58,369.38 -158.3,212.01 -199.22,412.96 -229.83,727.22 -58.08,596.39 -86.99,1194.97 -91.43,1798.95 -2.61,354.58 5.75,529.36 -70.17,863.26 -61.15,268.94 -106.06,533.12 -143.87,810.94 -94.82,696.54 -64.46,1302.72 -44.71,2002.47 5.21,185.06 -110.38,192.19 -240.14,455.44 -154.03,312.4 -135.14,414.79 -34.23,756.97 146.83,497.75 128.19,328.11 342.66,591.11 102.7,125.95 230.96,569.25 418.84,525.54 45.13,-75.65 32.54,-81.44 23.58,-173.95 195.63,-12.07 110.72,-222.23 26.62,-304.95 20.63,-64.93 66.99,-101.34 23.21,-196.66l-59.69 -197.71c-38.59,-125.58 -175.08,-200.27 -247.29,-289.02 -26.22,-79.53 44.26,-303.82 90.78,-343.21 123.04,93.39 130.72,686.12 432.28,583.1 2.13,-5.92 -89.15,-544.94 -94.44,-644.37 -16.81,-314.93 -144.15,-519.19 -155.24,-617.35 -22.1,-195.43 236.48,-1043.18 296.75,-1259.53 316.59,-1136.8 174.35,-1589.68 270.52,-2068.03 29.76,-147.93 89.07,-537.86 138.9,-647.25 137.57,784.45 301.89,1382.53 47.02,2151.2 -267.91,808.03 -407.82,1102.16 -465.95,2016.26 -145.75,2291.2 756.5,4895.48 739.16,5481.01 -4.37,147.86 -116.82,690.59 -136.87,1119.51 -35.73,764.55 55.48,1530.16 204.84,2256.98 93.94,456.99 445.93,1719.06 258.23,2152.37 -151.17,349.01 161.56,265.56 -292.8,918.69 -79.04,113.58 -505.5,649.36 -272.99,827.38 50.58,27.15 130.05,20.12 178.42,33.12 127.18,34.15 94.99,-12.22 165.17,-6.1 66.51,5.8 29.93,48.55 167.48,20.8 149.89,-30.23 13.57,-25.79 144.12,17.01 105.1,34.45 102.12,-7.55 171.69,-17.31 146.6,-20.55 666.65,531.46 571.99,-1310.22 -8.59,-166.9 39.36,-274.84 13.85,-446.08 -61.48,-412.56 -104.56,-269.97 -82.18,-807.94 11.52,-276.57 38.67,-552.26 63.86,-827.48 103.17,-1126.9 158.19,-2287.46 92.08,-3421.39 -33.77,-579.47 -5.97,-1161.51 1,-1741.02 6.6,-547.88 73.07,-1208.68 35.66,-1733.2 -38.64,-541.97 -94.09,-1123.49 -116.07,-1665.12 200.95,47.95 241.72,24.99 437.38,-4.99 -32.02,555.95 -79.37,1107.74 -117.18,1661.26 -36.65,536.25 29.53,1191.96 35.41,1742.05 6.29,590 34.77,1172.07 -0.33,1762.79 -67.14,1130.4 -9.43,2292.06 95.32,3419.9 38.41,413.91 102.52,852.54 55.57,1270.6 -14.95,133.08 -64.55,238.01 -79.48,366.22 -18.47,158.82 25.29,253.54 18.71,402.52 -17.83,405.09 -32.54,828.18 84.31,1216.71 82.37,274.01 364.54,143.11 445.1,119.15 83.45,-24.81 62.83,33.02 173.02,22.48 143.27,-13.7 6.45,-53.39 160.83,-31.56 171.97,24.31 89.88,-5.29 187.03,-16.06 89.32,-9.88 -24.11,36.43 231.73,-10.81 49.15,-9.08 51.84,1.7 116.55,-12.05 277.02,-155.38 -358.24,-923.97 -495.96,-1209.15 -121.94,-252.48 52.41,-259.86 -59.9,-513.9 -206.49,-467.06 136.82,-1650.07 239.04,-2139.51 153.65,-735.82 243.73,-1486.53 214.12,-2268.34 -15.25,-402.9 -90.4,-721.17 -133.5,-1091.18 -50.56,-434.24 853.44,-3297.53 740.06,-5443.48 -43.71,-826.85 -186.12,-1330.49 -445.63,-2034.83 -296.74,-805.43 -126.13,-1322.14 23.36,-2128.64 315.99,1067.97 41,1318.55 415.37,2646.2 60.09,213.05 310.44,1040.5 288.74,1231.99 -12.57,110.88 -131.45,301.29 -150.59,601.04 -7.85,123.02 5.32,245.36 -24.56,366.45 -26.4,106.88 -95.22,184.81 -71.09,304.47 380.98,4.99 282.6,-529.79 444.63,-591.23 47.72,68.19 108.24,296.72 55.73,373.59 -58.04,84.93 -201.93,137.7 -231.06,286.64 -28.78,147.1 -0.7,50.45 -55.25,172.74 -56.83,127.36 12.29,111.53 8.2,184.39 -4.96,88.87 -200.37,276.8 43.96,313.78 -11.39,111.3 -10.43,100.67 23.69,180.25 164.59,3.39 271.25,-257.63 342.18,-388.55 62.35,-115.14 72.66,-135.18 144.52,-217.36 54,-61.77 122.19,-109.04 161.76,-199.09 67.24,-152.92 134.93,-371.03 172.82,-547.34 69,-321.21 -91.7,-590.23 -271.43,-808.11 -90.92,-110.23 -66.89,-136.72 -60.06,-306.68 42.2,-1050.06 37.98,-1643.87 -195.28,-2688.19 -111.4,-498.74 -75.65,-1506.65 -115.04,-2091.15 -29.68,-440.36 -31.34,-910.23 -235.98,-1233.87 -220.31,-348.41 -454.53,-405.26 -966.83,-499 4.32,-4.66 11.29,-17.39 13.78,-13.22 20.52,34.6 20.8,-19.45 27.04,-24.79 16.56,-14.2 21.48,-16.58 38.14,-30.89 29.73,-25.49 36.43,-27.52 61.12,-65.31 46.24,-70.83 49.56,-127.76 48.25,-223.02 148.69,-7.58 249.65,-94.65 235.88,-252.54 -43.94,36.38 -87.17,131.12 -185.57,54.62 -232.39,-180.67 247.76,-477.22 352.94,-571.83 99.94,-89.93 194.75,-281.21 197.79,-476.09 4.37,-280.03 -111.3,-325.27 -219.39,-463.62 73.97,-54.35 156.24,-86.16 110.55,-227.9l-45.41 98.58c-232.14,31.07 -263.38,-155.93 -256.08,-362.68 30.11,-851.72 -27.32,-513.97 -61.17,-855.35 -36.28,-365.97 26.07,-390.96 -185.26,-775.55 -289.8,-527.3 -937.68,-864.96 -1779.81,-683.21 -845.8,182.54 -1584.56,897.56 -1340.43,1764.11 35.38,125.57 180.95,364.86 140.7,472.57 -35.62,95.37 -97.57,108.64 -48.85,261.22 20.35,63.7 73.74,144.19 102.05,219.21 61.29,162.46 39.54,434.67 255.59,338.95z"/>
  <circle class="fil1" cx="8753.72" cy="9459.35" r="589.5"/>
  <circle class="fil1" cx="12165.27" cy="9374.21" r="589.5"/>
  <path class="fil2" d="M8383.65 12750.27c-70.69,482.64 -103.01,974.59 -78.63,1480.28l950.21 28.43c444.57,13.29 891.74,-3.07 967.86,14.53 152.26,35.2 297.78,31.97 437.38,-4.99l1913.76 -27.66c36.85,-461.88 8.15,-975.36 -84.44,-1485.97l-4106.14 -4.62z"/>
  <path class="fil2" d="M10595.05 18884.75c0,0 -39.73,756.12 -45.42,1504.66 -4.08,537.46 20.92,1072.54 36.97,1314.12 38.42,578.06 106.42,1665.69 156.13,1955.87 1.1,6.42 2.13,12.88 3.06,19.35 2.67,18.5 -2.38,37.15 -0.91,55.99 21.4,273.01 -68.46,571.76 -55.09,571.9l778.44 8.86c0,0 -19.26,-163.92 -24.08,-354.9 -2.1,-83.03 18.22,-170.77 24.33,-252.79 1.2,-16.08 0.1,-32.2 3.04,-47.47 16.61,-86.31 15.27,-165.12 35.06,-217.06 79.33,-208.17 366.6,-1681.69 396.24,-2060.36 3.18,-40.67 10.8,-67.5 11.98,-78.7 1.6,-15.06 4.94,-66.8 9.04,-145.27 6.45,-123.19 29.51,-310.37 40.9,-526.87 31.76,-603.75 -73.72,-1323.65 -127.53,-1597.15 -6.71,-34.11 -6.29,-60.66 -6.54,-76.97l-1.16 -74.12 -1234.46 0.91z"/>
  <path class="fil2" d="M9055.61 18903.51c0,0 -93.14,476.05 -131.66,1031.9 -21.63,312.11 -5.6,661.33 3.9,936.51 24.64,713.96 188.71,1365.08 346.33,2073.76 243.14,1093.16 128.35,1386.24 138.88,1386.44l795.3 15.5c9.22,0.17 -82.32,-270.6 -67.68,-477.77 14.64,-207.17 142.37,-2133.09 151.31,-2120.78 8.94,12.31 84.9,-2773.29 -5.45,-2853.44 -90.35,-80.15 -1230.93,7.88 -1230.93,7.88z"/>
 </g>
</svg>
