<?xml version="1.0" encoding="UTF-8"?>
<!DOCTYPE svg PUBLIC "-//W3C//DTD SVG 1.1//EN" "http://www.w3.org/Graphics/SVG/1.1/DTD/svg11.dtd">
<!-- Creator: CorelDRAW 2021 (64-Bit) -->
<svg xmlns="http://www.w3.org/2000/svg" xml:space="preserve" width="128.524mm" height="63.4152mm" version="1.1" style="shape-rendering:geometricPrecision; text-rendering:geometricPrecision; image-rendering:optimizeQuality; fill-rule:evenodd; clip-rule:evenodd"
viewBox="0 0 12852.4 6341.52"
 xmlns:xlink="http://www.w3.org/1999/xlink"
 xmlns:xodm="http://www.corel.com/coreldraw/odm/2003">
 <defs>
  <style type="text/css">
   <![CDATA[
    .fil1 {fill:black}
    .fil0 {fill:black;fill-rule:nonzero}
   ]]>
  </style>
 </defs>
 <g id="Слой_x0020_1">
  <metadata id="CorelCorpID_0Corel-Layer"/>
  <g id="_1881042305152">
   <path class="fil0" d="M560.32 1283.93l647.81 0c128.56,0 224.01,5.28 286.94,15.84 63.36,10.92 119.57,33.18 169.3,66.77 49.8,33.9 91.25,78.77 124.49,134.99 33.18,56.15 49.73,119.5 49.73,189.28 0,75.41 -20.33,145.18 -61.07,208.17 -40.73,63.35 -96.17,110.45 -165.94,142.13 98.45,29.03 173.86,78.05 227.01,147.46 52.8,69.35 79.2,150.82 79.2,244.71 0,73.91 -16.98,145.54 -51.3,215.32 -34.31,69.77 -81.05,125.56 -140.62,167.44 -59.22,41.45 -132.35,67.07 -219.46,76.91 -54.29,5.64 -185.92,9.42 -394.45,10.92l-551.64 0 0 -1619.94zm328.04 269.25l0 373.28 214.18 0c127.06,0 206.26,-1.86 237.21,-5.64 55.8,-6.42 99.89,-25.62 131.99,-57.71 32.03,-32.04 47.87,-73.86 47.87,-125.93 0,-50.15 -13.98,-90.47 -41.51,-121.79 -27.48,-31.31 -68.58,-50.15 -122.93,-56.57 -32.4,-3.78 -125.57,-5.64 -279.03,-5.64l-187.78 0zm0 642.53l0 434.41 303.21 0c117.65,0 192.64,-3.42 224.31,-9.84 48.66,-9 88.25,-30.54 118.79,-64.85 30.54,-34.68 46.01,-80.27 46.01,-137.99 0,-49.01 -11.69,-90.11 -35.45,-124.06 -23.34,-33.96 -57.65,-58.8 -102.17,-74.28 -44.51,-15.47 -141.4,-23.39 -290.37,-23.39l-264.33 0zm2765.09 708.16l-353.3 0 -139.91 -368.78 -649.72 0 -134.57 368.78 -346.94 0 628.97 -1619.94 346.52 0 648.95 1619.94zm-599.52 -642.53l-225.15 -599.57 -218.67 599.57 443.82 0zm774.1 642.53l0 -1619.94 688.9 0c173.08,0 299.06,14.7 377.47,43.74 78.83,29.03 141.41,80.69 188.56,155.02 47.09,74.63 70.85,159.46 70.85,255.27 0,121.79 -35.45,222.09 -106.73,301.29 -71.21,79.19 -177.57,128.92 -319.34,149.68 70.49,41.09 128.57,86.33 174.22,135.76 45.96,49.38 107.81,137.27 185.5,263.19l197.62 315.99 -391.04 0 -234.57 -353.72c-84.05,-125.57 -141.76,-204.76 -173.08,-237.52 -30.9,-32.45 -63.71,-55.07 -98.39,-67.13 -35.1,-12.06 -90.11,-18.12 -165.58,-18.12l-66.35 0 0 676.49 -328.04 0zm328.04 -934.4l242.07 0c156.88,0 254.55,-6.78 293.79,-19.97 38.81,-13.2 69.71,-36.24 91.6,-68.64 22.26,-32.45 33.18,-73.13 33.18,-121.78 0,-54.72 -14.7,-98.45 -43.73,-132.35 -29.04,-33.59 -70.14,-54.71 -122.93,-63.35 -26.76,-3.78 -106.31,-5.7 -238.71,-5.7l-255.27 0 0 411.79zm1219.84 409.52l318.98 -31.68c19.26,106.73 57.71,184.78 116.15,234.93 58.43,50.16 137.26,74.99 236.43,74.99 104.81,0 184,-22.19 237.21,-66.71 53.16,-44.51 79.91,-96.53 79.91,-156.1 0,-38.46 -11.28,-70.91 -33.53,-98.03 -22.26,-26.82 -61.5,-50.15 -117.29,-69.77 -38.1,-13.56 -124.85,-36.96 -260.55,-70.91 -174.58,-43.74 -297.15,-97.25 -367.64,-161.02 -99.17,-89.33 -148.6,-198.34 -148.6,-326.91 0,-82.61 23.4,-160.24 69.77,-232.29 46.74,-71.99 113.87,-126.7 201.76,-164.38 87.83,-37.74 193.42,-56.57 317.84,-56.57 202.48,0 355.22,44.87 457.39,134.98 102.59,90.11 156.1,210.04 161.38,360.5l-328.04 11.28c-13.92,-83.69 -43.74,-143.63 -89.39,-180.22 -45.6,-36.6 -114.23,-55.08 -205.48,-55.08 -94.25,0 -168.16,19.62 -221.37,58.86 -34.26,25.25 -51.66,58.79 -51.66,101.03 0,38.45 16.26,71.27 48.66,98.44 41.09,35.04 141.04,71.28 299.78,108.95 158.75,37.38 276.03,76.55 351.8,116.51 76.19,40.37 135.77,95.03 178.78,164.8 42.96,69.77 64.43,155.74 64.43,257.91 0,92.81 -25.61,179.86 -77.27,260.97 -51.65,81.05 -124.42,141.4 -218.73,180.58 -94.25,39.59 -211.9,59.21 -352.52,59.21 -204.76,0 -362,-47.09 -471.73,-141.76 -109.72,-94.25 -175,-231.93 -196.47,-412.51zm4523.89 524.88l-579.59 -1619.94 354.44 0 411.43 1199.14 394.76 -1199.14 348.44 0 -576.18 1619.94 -353.3 0zm2386.11 0l-353.3 0 -139.9 -368.78 -649.73 0 -134.56 368.78 -346.94 0 628.96 -1619.94 346.52 0 648.95 1619.94zm-599.51 -642.53l-225.16 -599.57 -218.67 599.57 443.83 0zm-9843.55 2401.94l0 -1012.38 193.72 0 0 365.24c59.81,-68.09 130.55,-102.29 212.56,-102.29 89.27,0 163.06,32.34 221.49,97.13 58.43,64.79 87.65,157.9 87.65,279.27 0,125.32 -29.63,221.97 -89.27,289.82 -59.63,67.67 -132.22,101.57 -217.29,101.57 -41.94,0 -83.21,-10.8 -123.95,-32.28 -40.79,-21.65 -75.89,-52.79 -105.35,-93.76l0 107.68 -179.56 0zm190.84 -381.07c0,76.13 12.06,132.7 36.06,169 33.71,51.83 78.29,77.75 134.14,77.75 42.84,0 79.37,-18.36 109.79,-55.14 30.18,-36.77 45.23,-94.72 45.23,-173.68 0,-84.17 -15.29,-144.7 -45.71,-181.95 -30.42,-37.26 -69.29,-55.86 -116.87,-55.86 -46.67,0 -85.31,18.18 -116.2,54.48 -30.84,36.29 -46.44,91.43 -46.44,165.4zm1105.55 149.2l193.72 32.52c-24.77,70.91 -64.13,124.9 -117.64,162.1 -53.7,37.01 -120.89,55.61 -201.22,55.61 -127.49,0 -222.04,-41.69 -283.05,-125.08 -48.29,-66.96 -72.59,-151.31 -72.59,-253.36 0,-121.6 31.86,-217.05 95.21,-285.86 63.41,-69.05 143.74,-103.49 240.87,-103.49 108.89,0 194.86,36.06 258.03,108.17 62.93,72.11 93.11,182.68 90.29,331.58l-485.04 0c1.44,57.53 16.98,102.29 46.91,134.32 29.7,32.1 66.95,48.12 111.23,48.12 30.42,0 55.85,-8.28 76.37,-24.78 20.76,-16.5 36.3,-43.13 46.91,-79.85zm11.28 -196.54c-1.38,-56.33 -15.77,-99.23 -43.37,-128.44 -27.54,-29.46 -61.01,-44.1 -100.61,-44.1 -42.18,0 -77.03,15.54 -104.63,46.44 -27.59,30.89 -40.97,73.07 -40.55,126.1l289.16 0zm495.13 -79.19l-175.36 -31.14c19.79,-71.63 53.99,-124.66 102.28,-159.04 48.36,-34.43 120.23,-51.65 215.44,-51.65 86.45,0 151.06,10.14 193.48,30.66 42.17,20.51 72.11,46.43 89.27,77.99 17.22,31.61 25.97,89.33 25.97,173.68l-2.88 226.23c0,64.37 3.06,111.95 9.24,142.6 6.12,30.66 17.64,63.42 34.62,98.27l-192.28 0c-4.98,-12.72 -11.34,-31.55 -18.66,-56.57 -3.06,-11.52 -5.4,-19.08 -6.84,-22.62 -32.99,32.52 -68.33,56.82 -106,73.07 -37.74,16.26 -77.81,24.48 -120.47,24.48 -75.17,0 -134.56,-20.46 -177.88,-61.49 -43.37,-40.74 -65.09,-92.63 -65.09,-155.32 0,-41.22 9.9,-78.24 29.7,-110.75 19.79,-32.28 47.39,-57.24 83.21,-74.45 35.57,-17.22 86.99,-32.28 154.12,-45.24 90.53,-16.98 153.4,-32.99 188.32,-47.63l0 -19.56c0,-37.68 -9.18,-64.55 -27.6,-80.81 -18.6,-16.02 -53.51,-24.06 -104.63,-24.06 -34.61,0 -61.49,6.84 -80.81,20.76 -19.56,13.68 -35.16,37.92 -47.15,72.59zm260.19 156.94c-24.78,8.22 -64.14,18.12 -118.07,29.7 -53.75,11.52 -89.09,22.86 -105.59,33.72 -25.2,18.11 -37.97,40.73 -37.97,68.33 0,27.29 10.14,50.63 30.41,70.43 20.28,19.8 45.96,29.7 77.33,29.7 34.86,0 68.34,-11.52 100.13,-34.38 23.34,-17.7 38.88,-38.88 46.2,-64.37 4.92,-16.5 7.56,-48.06 7.56,-94.49l0 -38.64zm866.96 350.66l0 -109.84c-26.88,39.17 -61.98,70.25 -105.59,93.58 -43.56,23.1 -89.51,34.62 -137.87,34.62 -49.49,0 -93.76,-10.8 -132.88,-32.52 -39.36,-21.65 -67.67,-52.31 -85.07,-91.43 -17.7,-39.35 -26.4,-93.52 -26.4,-162.82l0 -465.42 193.72 0 0 337.94c0,103.43 3.54,166.6 10.8,189.94 7.08,23.33 20.04,41.93 39.17,55.37 18.84,13.68 42.84,20.52 72.12,20.52 33.17,0 62.87,-9.24 89.27,-27.36 26.39,-18.12 44.33,-40.79 53.99,-67.85 9.66,-27.12 14.58,-93.11 14.58,-198.46l0 -310.1 193.72 0 0 733.83 -179.56 0zm713.85 -733.83l0 154.12 -132.94 0 0 297.15c0,60.35 1.2,95.44 3.78,105.34 2.58,9.9 8.28,18.12 17.46,24.72 8.94,6.42 19.79,9.72 32.75,9.72 18.12,0 44.04,-6.18 78.23,-18.66l16.26 150.82c-44.99,19.32 -95.93,28.98 -152.92,28.98 -34.92,0 -66.23,-5.88 -94.31,-17.64 -28.02,-11.82 -48.53,-27.11 -61.49,-45.71 -13.2,-18.9 -22.14,-44.1 -27.3,-76.13 -4.02,-22.62 -6.18,-68.34 -6.18,-137.39l0 -321.2 -89.03 0 0 -154.12 89.03 0 0 -145.67 193.72 -114.52 0 260.19 132.94 0zm42.36 0l206.44 0 176.07 520.56 171.77 -520.56 200.79 0 -258.75 706.24 -46.67 127.54c-17.16,42.66 -33.42,75.17 -49.02,97.79 -15.3,22.38 -33.23,40.74 -53.21,54.65 -20.04,14.16 -44.82,24.96 -74.27,32.76 -29.22,7.8 -62.46,11.76 -99.47,11.76 -37.2,0 -73.97,-3.96 -110.03,-11.76l-16.98 -151.3c30.42,5.88 58.02,8.94 82.49,8.94 45.24,0 78.71,-13.2 100.37,-39.78 21.72,-26.64 38.46,-60.59 49.98,-101.57l-279.51 -735.27zm1203.28 527.4l195.16 -29.7c8.22,37.5 24.95,65.99 50.39,85.31 25.26,19.56 60.83,29.22 106.31,29.22 50.21,0 87.89,-9.18 113.33,-27.6 16.97,-12.96 25.49,-30.36 25.49,-52.07 0,-14.58 -4.74,-26.82 -13.91,-36.54 -9.66,-9.18 -31.38,-17.88 -64.8,-25.68 -156.76,-34.61 -255.93,-66.23 -297.92,-94.73 -58.2,-39.83 -87.17,-94.97 -87.17,-165.4 0,-63.89 25.19,-117.4 75.41,-160.72 50.21,-43.37 127.96,-65.09 233.31,-65.09 100.37,0 175.06,16.5 223.9,49.25 48.77,33 82.43,81.59 100.84,145.91l-182.43 33.95c-7.74,-28.79 -22.86,-50.93 -44.76,-66.23 -21.9,-15.36 -53.27,-22.86 -94.01,-22.86 -51.41,0 -88.13,7.08 -110.57,21.42 -14.81,10.14 -22.13,23.34 -22.13,39.36 0,13.91 6.36,25.67 19.31,35.33 17.7,13.02 78.24,31.14 181.96,54.72 103.67,23.57 176.02,52.31 217.06,86.45 40.73,34.43 61.01,82.73 61.01,144.46 0,67.19 -28.02,125.14 -84.35,173.5 -56.09,48.29 -139.3,72.53 -249.57,72.53 -99.95,0 -179.14,-20.22 -237.57,-60.53 -58.2,-40.32 -96.35,-94.97 -114.29,-164.26zm1190.8 -527.4l0 154.12 -132.94 0 0 297.15c0,60.35 1.2,95.44 3.78,105.34 2.58,9.9 8.28,18.12 17.46,24.72 8.93,6.42 19.79,9.72 32.75,9.72 18.12,0 44.04,-6.18 78.23,-18.66l16.26 150.82c-44.99,19.32 -95.93,28.98 -152.92,28.98 -34.92,0 -66.23,-5.88 -94.31,-17.64 -28.02,-11.82 -48.53,-27.11 -61.49,-45.71 -13.2,-18.9 -22.14,-44.1 -27.3,-76.13 -4.02,-22.62 -6.18,-68.34 -6.18,-137.39l0 -321.2 -89.03 0 0 -154.12 89.03 0 0 -145.67 193.72 -114.52 0 260.19 132.94 0zm620.69 733.83l0 -109.84c-26.88,39.17 -61.97,70.25 -105.59,93.58 -43.55,23.1 -89.51,34.62 -137.86,34.62 -49.49,0 -93.77,-10.8 -132.89,-32.52 -39.35,-21.65 -67.67,-52.31 -85.07,-91.43 -17.69,-39.35 -26.39,-93.52 -26.39,-162.82l0 -465.42 193.72 0 0 337.94c0,103.43 3.53,166.6 10.79,189.94 7.08,23.33 20.04,41.93 39.18,55.37 18.84,13.68 42.83,20.52 72.11,20.52 33.18,0 62.87,-9.24 89.27,-27.36 26.4,-18.12 44.34,-40.79 53.99,-67.85 9.66,-27.12 14.58,-93.11 14.58,-198.46l0 -310.1 193.72 0 0 733.83 -179.56 0zm1051.8 0l-179.56 0 0 -107.68c-29.94,41.93 -65.51,73.25 -106.31,94.48 -40.79,21 -82.01,31.56 -123.46,31.56 -84.65,0 -157,-33.9 -217.3,-101.99 -60.11,-68.15 -90.29,-162.88 -90.29,-284.72 0,-124.43 29.22,-219.16 87.95,-283.95 58.68,-64.79 132.65,-97.13 222.22,-97.13 82.01,0 153.16,34.2 213.03,102.29l0 -365.24 193.72 0 0 1012.38zm-517.5 -381.07c0,78.47 10.8,135.28 32.28,170.38 31.31,50.93 74.93,76.37 131.02,76.37 44.52,0 82.49,-19.08 113.57,-57.3 31.37,-38.15 46.91,-94.96 46.91,-170.86 0,-84.59 -15.12,-145.36 -45.47,-182.61 -30.42,-37.26 -69.05,-55.86 -116.45,-55.86 -45.95,0 -84.35,18.42 -115.49,55.14 -30.83,36.77 -46.37,91.67 -46.37,164.74zm708.16 -451.75l0 -179.56 193.72 0 0 179.56 -193.72 0zm0 832.82l0 -733.83 193.72 0 0 733.83 -193.72 0zm347.6 -375.85c0,-64.62 15.78,-127.07 47.57,-187.36 31.86,-60.6 76.85,-106.55 135.05,-138.35 58.19,-31.79 123.04,-47.87 194.91,-47.87 110.99,0 201.7,36.06 272.67,108.17 70.91,72.35 106.25,163.36 106.25,273.63 0,111.22 -35.82,203.37 -107.21,276.44 -71.63,73.07 -161.68,109.55 -270.33,109.55 -67.13,0 -131.26,-15.3 -192.27,-45.71 -60.84,-30.36 -107.21,-74.94 -139.07,-133.85 -31.79,-58.67 -47.57,-130.3 -47.57,-214.65zm199.35 10.31c0,72.84 17.22,128.69 51.6,167.33 34.67,38.93 77.09,58.25 127.72,58.25 50.46,0 92.87,-19.32 127.07,-58.25 34.14,-38.64 51.35,-94.97 51.35,-168.7 0,-71.88 -17.21,-127.25 -51.35,-165.95 -34.2,-38.87 -76.61,-58.19 -127.07,-58.19 -50.63,0 -93.05,19.32 -127.72,58.19 -34.38,38.7 -51.6,94.55 -51.6,167.32z"/>
   <g>
    <path class="fil1" d="M7948.69 1842.19c-239.99,23.83 -288.64,246.71 -313.38,419.55 -37.42,261.53 -97.05,286.9 -231.2,463.15 -334.69,439.76 443.62,472.96 834.03,349.76 193.32,-61 1040.35,-463.94 612.87,-741.02 -156.43,-101.38 -286.93,-40.99 -468.93,-202.62 -123.74,-109.9 -273.61,-304.68 -433.39,-288.82z"/>
    <path class="fil1" d="M7326.24 1197.05c-405.85,99.34 -89.75,710.18 170.26,666.08 369.81,-62.73 71.26,-725.2 -170.26,-666.08z"/>
    <path class="fil1" d="M8026.58 974.24c-378.86,96.92 -164.04,732.98 94.36,691.43 349.58,-56.2 176.92,-760.83 -94.36,-691.43z"/>
    <path class="fil1" d="M7047.35 1886.71c-405.54,99.18 -110.56,588.4 139.68,556.34 368.66,-47.21 114.61,-618.53 -139.68,-556.34z"/>
    <path class="fil1" d="M8649.72 1374.83c-363.82,111.05 -207.38,622.78 39.43,589.69 355.44,-47.66 230.66,-672.12 -39.43,-589.69z"/>
   </g>
  </g>
 </g>
</svg>
