<?xml version="1.0" encoding="UTF-8"?>
<!DOCTYPE svg PUBLIC "-//W3C//DTD SVG 1.1//EN" "http://www.w3.org/Graphics/SVG/1.1/DTD/svg11.dtd">
<!-- Creator: CorelDRAW 2021 (64-Bit) -->
<svg xmlns="http://www.w3.org/2000/svg" xml:space="preserve" width="215.9mm" height="279.4mm" version="1.1" style="shape-rendering:geometricPrecision; text-rendering:geometricPrecision; image-rendering:optimizeQuality; fill-rule:evenodd; clip-rule:evenodd"
viewBox="0 0 21590 27940"
 xmlns:xlink="http://www.w3.org/1999/xlink"
 xmlns:xodm="http://www.corel.com/coreldraw/odm/2003">
 <defs>
  <style type="text/css">
   <![CDATA[
    .fil0 {fill:#FEFEFE}
   ]]>
  </style>
 </defs>
 <g id="Слой_x0020_1">
  <metadata id="CorelCorpID_0Corel-Layer"/>
  <path class="fil0" d="M10346.8 10472.63c14.77,199.34 116.78,224.28 220.52,338.31 33.4,36.7 19.2,118.61 15.87,170.77 -7.14,111.85 -113.55,141.3 -202.92,169.12 -106.25,33.08 -197.74,46.02 -307.71,73.39 -109.11,27.16 -174.62,79.71 -225.02,147.22 -63.09,84.5 -79.4,164.59 -91.6,289.84 -23.15,237.7 -34.67,476.27 -36.44,716.99 -1.04,141.32 2.29,210.98 -27.97,344.06 -24.37,107.19 -42.27,212.48 -57.34,323.21 -37.79,277.61 -25.69,519.21 -17.82,798.1 2.08,73.76 -43.99,76.6 -95.71,181.52 -61.39,124.51 -53.86,165.32 -13.64,301.7 58.52,198.38 51.09,130.77 136.57,235.59 40.93,50.2 92.05,226.88 166.93,209.46 17.99,-30.15 12.97,-32.46 9.4,-69.33 77.97,-4.81 44.13,-88.57 10.61,-121.54 8.22,-25.88 26.7,-40.39 9.25,-78.38l-23.79 -78.8c-15.38,-50.05 -69.78,-79.82 -98.56,-115.19 -10.45,-31.7 17.64,-121.09 36.18,-136.79 49.04,37.22 52.1,273.46 172.29,232.4 12.73,-35.47 -16.55,-70.91 -27.33,-113.28 -11.4,-44.8 -7.74,-95.33 -10.31,-143.54 -6.7,-125.52 -57.45,-206.93 -61.87,-246.05 -8.81,-77.89 94.25,-415.77 118.27,-502 126.18,-453.08 69.49,-633.58 107.82,-824.23 11.86,-58.96 35.5,-214.37 55.36,-257.97 54.83,312.65 120.32,551.02 18.74,857.38 -106.78,322.05 -162.54,439.28 -185.71,803.6 -58.09,913.18 301.51,1951.14 294.6,2184.51 -1.74,58.93 -46.56,275.24 -54.55,446.19 -14.24,304.72 22.11,609.86 81.64,899.54 37.44,182.14 177.73,685.15 102.92,857.85 -60.25,139.1 64.39,105.84 -116.7,366.15 -31.5,45.27 -201.47,258.81 -108.8,329.76 20.16,10.82 51.83,8.02 71.11,13.2 50.69,13.61 37.86,-4.87 65.83,-2.43 26.51,2.31 11.93,19.35 66.75,8.29 59.74,-12.05 5.41,-10.28 57.44,6.78 41.89,13.73 40.7,-3.01 68.43,-6.9 58.43,-8.19 265.7,211.82 227.97,-522.2 -3.42,-66.52 15.69,-109.54 5.52,-177.79 -24.5,-164.43 -41.67,-107.6 -32.75,-322.01 4.59,-110.23 15.41,-220.11 25.45,-329.8 41.12,-449.14 63.05,-911.69 36.7,-1363.63 -13.46,-230.95 -2.38,-462.93 0.4,-693.9 2.63,-218.36 29.12,-481.73 14.21,-690.78 -15.4,-216.01 -37.5,-447.78 -46.26,-663.65 80.09,19.11 96.34,9.96 174.32,-1.99 -12.76,221.58 -31.63,441.5 -46.7,662.11 -14.61,213.73 11.77,475.07 14.11,694.31 2.51,235.15 13.86,467.14 -0.13,702.58 -26.76,450.53 -3.76,913.52 37.99,1363.03 15.31,164.97 40.86,339.79 22.15,506.41 -5.96,53.04 -25.73,94.86 -31.68,145.96 -7.36,63.3 10.08,101.05 7.46,160.43 -7.11,161.45 -12.97,330.08 33.6,484.93 32.83,109.21 145.29,57.04 177.4,47.49 33.26,-9.89 25.04,13.16 68.96,8.96 57.1,-5.46 2.57,-21.28 64.1,-12.58 68.54,9.69 35.82,-2.11 74.54,-6.4 35.6,-3.94 -9.61,14.52 92.36,-4.31 19.59,-3.62 20.66,0.68 46.45,-4.8 110.41,-61.93 -142.78,-368.26 -197.67,-481.92 -48.6,-100.63 20.89,-103.57 -23.87,-204.82 -82.3,-186.15 54.53,-657.65 95.27,-852.72 61.24,-293.27 97.14,-592.47 85.34,-904.07 -6.08,-160.58 -36.03,-287.43 -53.21,-434.9 -20.15,-173.07 340.15,-1314.26 294.96,-2169.55 -17.42,-329.55 -74.18,-530.28 -177.61,-811 -118.27,-321.01 -50.27,-526.95 9.31,-848.39 125.94,425.65 16.34,525.52 165.55,1054.67 23.95,84.91 123.73,414.7 115.08,491.02 -5.01,44.19 -52.39,120.08 -60.02,239.55 -3.13,49.03 2.12,97.79 -9.79,146.05 -10.52,42.6 -37.95,73.66 -28.33,121.35 151.84,1.99 112.63,-211.15 177.21,-235.64 19.02,27.18 43.14,118.26 22.21,148.9 -23.13,33.85 -80.48,54.88 -92.09,114.24 -11.47,58.63 -0.28,20.11 -22.02,68.85 -22.65,50.76 4.9,44.45 3.27,73.49 -1.98,35.42 -79.86,110.32 17.52,125.06 -4.54,44.36 -4.16,40.12 9.44,71.84 65.6,1.35 108.11,-102.68 136.38,-154.86 24.85,-45.89 28.96,-53.88 57.6,-86.63 21.52,-24.62 48.7,-43.46 64.47,-79.35 26.8,-60.95 53.78,-147.88 68.88,-218.15 27.5,-128.02 -36.55,-235.24 -108.18,-322.08 -36.24,-43.93 -26.66,-54.49 -23.94,-122.23 16.82,-418.51 15.14,-655.18 -77.83,-1071.4 -44.4,-198.78 -30.15,-600.49 -45.85,-833.45 -11.83,-175.51 -12.49,-362.78 -94.05,-491.77 -87.81,-138.86 -181.16,-161.52 -385.34,-198.88 1.72,-1.86 4.5,-6.93 5.49,-5.27 8.18,13.79 8.29,-7.75 10.78,-9.88 6.6,-5.66 8.56,-6.61 15.2,-12.31 11.85,-10.16 14.52,-10.97 24.36,-26.03 18.43,-28.23 19.75,-50.92 19.23,-88.89 59.26,-3.02 99.5,-37.72 94.01,-100.65 -17.51,14.5 -34.74,52.26 -73.96,21.77 -92.62,-72.01 98.75,-190.2 140.67,-227.91 39.83,-35.84 77.62,-112.08 78.83,-189.75 1.74,-111.61 -44.36,-129.64 -87.44,-184.78 29.48,-21.66 62.27,-34.34 44.06,-90.83l-18.1 39.29c-92.52,12.38 -104.97,-62.15 -102.06,-144.55 12,-339.46 -10.89,-204.85 -24.38,-340.91 -14.46,-145.86 10.39,-155.82 -73.84,-309.1 -115.5,-210.16 -373.72,-344.74 -709.36,-272.3 -337.1,72.75 -631.54,357.73 -534.24,703.1 14.1,50.05 72.12,145.42 56.08,188.35 -14.2,38.01 -38.89,43.3 -19.47,104.11 8.11,25.39 29.39,57.47 40.67,87.37 24.43,64.75 15.76,173.24 101.87,135.09z"/>
 </g>
</svg>
