<?xml version="1.0" encoding="UTF-8"?>
<!DOCTYPE svg PUBLIC "-//W3C//DTD SVG 1.1//EN" "http://www.w3.org/Graphics/SVG/1.1/DTD/svg11.dtd">
<!-- Creator: CorelDRAW 2021 (64-Bit) -->
<svg xmlns="http://www.w3.org/2000/svg" xml:space="preserve" width="11.176mm" height="2.54mm" version="1.1" style="shape-rendering:geometricPrecision; text-rendering:geometricPrecision; image-rendering:optimizeQuality; fill-rule:evenodd; clip-rule:evenodd"
viewBox="0 0 1117.6 254"
 xmlns:xlink="http://www.w3.org/1999/xlink"
 xmlns:xodm="http://www.corel.com/coreldraw/odm/2003">
 <defs>
  <style type="text/css">
   <![CDATA[
    .str0 {stroke:gold;stroke-width:20.32;stroke-miterlimit:22.9256}
    .fil2 {fill:none}
    .fil0 {fill:gold}
    .fil1 {fill:gold}
   ]]>
  </style>
 </defs>
 <g id="Слой_x0020_1">
  <metadata id="CorelCorpID_0Corel-Layer"/>
  <polygon class="fil0 str0" points="123.12,50.8 138.07,97.13 186.75,97.04 147.32,125.58 162.45,171.84 123.12,143.15 83.79,171.84 98.92,125.58 59.49,97.04 108.17,97.13 "/>
  <polygon class="fil1 str0" points="350.2,50.8 365.16,97.13 413.84,97.04 374.4,125.58 389.54,171.84 350.2,143.15 310.87,171.84 326.01,125.58 286.57,97.04 335.25,97.13 "/>
  <polygon class="fil1 str0" points="571.7,50.8 586.65,97.13 635.33,97.04 595.9,125.58 611.03,171.84 571.7,143.15 532.37,171.84 547.5,125.58 508.07,97.04 556.75,97.13 "/>
  <polygon class="fil1 str0" points="779.35,50.8 794.3,97.13 842.98,97.04 803.55,125.58 818.69,171.84 779.35,143.15 740.02,171.84 755.15,125.58 715.72,97.04 764.4,97.13 "/>
  <polygon class="fil2" points="991.62,50.8 1006.57,97.13 1055.25,97.04 1015.82,125.58 1030.95,171.84 991.62,143.15 952.29,171.84 967.42,125.58 927.99,97.04 976.67,97.13 "/>
 </g>
</svg>
